<?xml version="1.0" encoding="UTF-8"?>
<svg xmlns="http://www.w3.org/2000/svg" xmlns:xlink="http://www.w3.org/1999/xlink" width="4320" height="2025" viewBox="0 0 4320 2025">
<defs>
<clipPath id="clip-0">
<path clip-rule="nonzero" d="M 0 0 L 4320 0 L 4320 427.71875 L 0 427.71875 Z M 0 0 "/>
</clipPath>
<linearGradient id="linear-pattern-0" gradientUnits="userSpaceOnUse" x1="-0.0619502" y1="0" x2="1.057457" y2="0" gradientTransform="matrix(-5.13057, -428.266, -428.266, 5.13057, 2167.64, 426.97)">
<stop offset="0" stop-color="rgb(0%, 79.998779%, 100%)" stop-opacity="1"/>
<stop offset="0.0625" stop-color="rgb(0%, 79.930115%, 99.975586%)" stop-opacity="1"/>
<stop offset="0.078125" stop-color="rgb(0%, 79.710388%, 99.900818%)" stop-opacity="1"/>
<stop offset="0.09375" stop-color="rgb(0%, 79.408264%, 99.797058%)" stop-opacity="1"/>
<stop offset="0.109375" stop-color="rgb(0%, 79.10614%, 99.694824%)" stop-opacity="1"/>
<stop offset="0.125" stop-color="rgb(0%, 78.804016%, 99.591064%)" stop-opacity="1"/>
<stop offset="0.140625" stop-color="rgb(0%, 78.503418%, 99.488831%)" stop-opacity="1"/>
<stop offset="0.15625" stop-color="rgb(0%, 78.201294%, 99.385071%)" stop-opacity="1"/>
<stop offset="0.171875" stop-color="rgb(0%, 77.89917%, 99.282837%)" stop-opacity="1"/>
<stop offset="0.1875" stop-color="rgb(0%, 77.597046%, 99.180603%)" stop-opacity="1"/>
<stop offset="0.203125" stop-color="rgb(0%, 77.294922%, 99.076843%)" stop-opacity="1"/>
<stop offset="0.21875" stop-color="rgb(0%, 76.994324%, 98.974609%)" stop-opacity="1"/>
<stop offset="0.234375" stop-color="rgb(0%, 76.6922%, 98.87085%)" stop-opacity="1"/>
<stop offset="0.25" stop-color="rgb(0%, 76.390076%, 98.768616%)" stop-opacity="1"/>
<stop offset="0.265625" stop-color="rgb(0%, 76.087952%, 98.664856%)" stop-opacity="1"/>
<stop offset="0.28125" stop-color="rgb(0%, 75.785828%, 98.562622%)" stop-opacity="1"/>
<stop offset="0.296875" stop-color="rgb(0%, 75.485229%, 98.460388%)" stop-opacity="1"/>
<stop offset="0.3125" stop-color="rgb(0%, 75.183105%, 98.356628%)" stop-opacity="1"/>
<stop offset="0.328125" stop-color="rgb(0%, 74.880981%, 98.254395%)" stop-opacity="1"/>
<stop offset="0.34375" stop-color="rgb(0%, 74.578857%, 98.150635%)" stop-opacity="1"/>
<stop offset="0.359375" stop-color="rgb(0%, 74.278259%, 98.048401%)" stop-opacity="1"/>
<stop offset="0.375" stop-color="rgb(0%, 73.976135%, 97.944641%)" stop-opacity="1"/>
<stop offset="0.390625" stop-color="rgb(0%, 73.674011%, 97.842407%)" stop-opacity="1"/>
<stop offset="0.40625" stop-color="rgb(0%, 73.371887%, 97.740173%)" stop-opacity="1"/>
<stop offset="0.421875" stop-color="rgb(0%, 73.069763%, 97.636414%)" stop-opacity="1"/>
<stop offset="0.4375" stop-color="rgb(0%, 72.769165%, 97.53418%)" stop-opacity="1"/>
<stop offset="0.453125" stop-color="rgb(0%, 72.467041%, 97.43042%)" stop-opacity="1"/>
<stop offset="0.46875" stop-color="rgb(0%, 72.164917%, 97.328186%)" stop-opacity="1"/>
<stop offset="0.484375" stop-color="rgb(0%, 71.862793%, 97.224426%)" stop-opacity="1"/>
<stop offset="0.5" stop-color="rgb(0%, 71.560669%, 97.122192%)" stop-opacity="1"/>
<stop offset="0.515625" stop-color="rgb(0%, 71.260071%, 97.019958%)" stop-opacity="1"/>
<stop offset="0.53125" stop-color="rgb(0%, 70.957947%, 96.916199%)" stop-opacity="1"/>
<stop offset="0.546875" stop-color="rgb(0%, 70.655823%, 96.813965%)" stop-opacity="1"/>
<stop offset="0.5625" stop-color="rgb(0%, 70.353699%, 96.710205%)" stop-opacity="1"/>
<stop offset="0.578125" stop-color="rgb(0%, 70.051575%, 96.607971%)" stop-opacity="1"/>
<stop offset="0.59375" stop-color="rgb(0%, 69.750977%, 96.504211%)" stop-opacity="1"/>
<stop offset="0.609375" stop-color="rgb(0%, 69.448853%, 96.401978%)" stop-opacity="1"/>
<stop offset="0.625" stop-color="rgb(0%, 69.146729%, 96.299744%)" stop-opacity="1"/>
<stop offset="0.640625" stop-color="rgb(0%, 68.844604%, 96.195984%)" stop-opacity="1"/>
<stop offset="0.65625" stop-color="rgb(0%, 68.544006%, 96.09375%)" stop-opacity="1"/>
<stop offset="0.671875" stop-color="rgb(0%, 68.241882%, 95.98999%)" stop-opacity="1"/>
<stop offset="0.6875" stop-color="rgb(0%, 67.939758%, 95.887756%)" stop-opacity="1"/>
<stop offset="0.703125" stop-color="rgb(0%, 67.637634%, 95.783997%)" stop-opacity="1"/>
<stop offset="0.71875" stop-color="rgb(0%, 67.33551%, 95.681763%)" stop-opacity="1"/>
<stop offset="0.734375" stop-color="rgb(0%, 67.034912%, 95.579529%)" stop-opacity="1"/>
<stop offset="0.75" stop-color="rgb(0%, 66.732788%, 95.475769%)" stop-opacity="1"/>
<stop offset="0.765625" stop-color="rgb(0%, 66.430664%, 95.373535%)" stop-opacity="1"/>
<stop offset="0.78125" stop-color="rgb(0%, 66.12854%, 95.269775%)" stop-opacity="1"/>
<stop offset="0.796875" stop-color="rgb(0%, 65.826416%, 95.167542%)" stop-opacity="1"/>
<stop offset="0.8125" stop-color="rgb(0%, 65.525818%, 95.063782%)" stop-opacity="1"/>
<stop offset="0.828125" stop-color="rgb(0%, 65.223694%, 94.961548%)" stop-opacity="1"/>
<stop offset="0.84375" stop-color="rgb(0%, 64.92157%, 94.859314%)" stop-opacity="1"/>
<stop offset="0.859375" stop-color="rgb(0%, 64.619446%, 94.755554%)" stop-opacity="1"/>
<stop offset="0.875" stop-color="rgb(0%, 64.317322%, 94.65332%)" stop-opacity="1"/>
<stop offset="0.890625" stop-color="rgb(0%, 64.016724%, 94.549561%)" stop-opacity="1"/>
<stop offset="0.90625" stop-color="rgb(0%, 63.7146%, 94.447327%)" stop-opacity="1"/>
<stop offset="0.921875" stop-color="rgb(0%, 63.412476%, 94.343567%)" stop-opacity="1"/>
<stop offset="0.9375" stop-color="rgb(0%, 63.110352%, 94.241333%)" stop-opacity="1"/>
<stop offset="1" stop-color="rgb(0%, 62.852478%, 94.152832%)" stop-opacity="1"/>
</linearGradient>
<clipPath id="clip-1">
<path clip-rule="nonzero" d="M 0 390.351562 L 4320 390.351562 L 4320 779.019531 L 0 779.019531 Z M 0 390.351562 "/>
</clipPath>
<linearGradient id="linear-pattern-1" gradientUnits="userSpaceOnUse" x1="-0.0748366" y1="0" x2="1.07168" y2="0" gradientTransform="matrix(-5.13059, 388.671, 388.671, 5.13059, 2167.64, 391.03)">
<stop offset="0" stop-color="rgb(4.705811%, 78.430176%, 98.822021%)" stop-opacity="1"/>
<stop offset="0.0625" stop-color="rgb(4.705811%, 78.430176%, 98.822021%)" stop-opacity="1"/>
<stop offset="0.078125" stop-color="rgb(4.84314%, 78.465271%, 98.822021%)" stop-opacity="1"/>
<stop offset="0.09375" stop-color="rgb(5.149841%, 78.541565%, 98.822021%)" stop-opacity="1"/>
<stop offset="0.109375" stop-color="rgb(5.487061%, 78.625488%, 98.822021%)" stop-opacity="1"/>
<stop offset="0.125" stop-color="rgb(5.82428%, 78.709412%, 98.822021%)" stop-opacity="1"/>
<stop offset="0.140625" stop-color="rgb(6.161499%, 78.794861%, 98.822021%)" stop-opacity="1"/>
<stop offset="0.15625" stop-color="rgb(6.498718%, 78.878784%, 98.822021%)" stop-opacity="1"/>
<stop offset="0.171875" stop-color="rgb(6.835938%, 78.962708%, 98.822021%)" stop-opacity="1"/>
<stop offset="0.1875" stop-color="rgb(7.173157%, 79.046631%, 98.822021%)" stop-opacity="1"/>
<stop offset="0.203125" stop-color="rgb(7.510376%, 79.13208%, 98.822021%)" stop-opacity="1"/>
<stop offset="0.21875" stop-color="rgb(7.847595%, 79.216003%, 98.822021%)" stop-opacity="1"/>
<stop offset="0.234375" stop-color="rgb(8.184814%, 79.299927%, 98.822021%)" stop-opacity="1"/>
<stop offset="0.25" stop-color="rgb(8.522034%, 79.38385%, 98.822021%)" stop-opacity="1"/>
<stop offset="0.265625" stop-color="rgb(8.859253%, 79.469299%, 98.822021%)" stop-opacity="1"/>
<stop offset="0.28125" stop-color="rgb(9.196472%, 79.553223%, 98.822021%)" stop-opacity="1"/>
<stop offset="0.296875" stop-color="rgb(9.533691%, 79.637146%, 98.822021%)" stop-opacity="1"/>
<stop offset="0.3125" stop-color="rgb(9.870911%, 79.721069%, 98.822021%)" stop-opacity="1"/>
<stop offset="0.328125" stop-color="rgb(10.20813%, 79.806519%, 98.822021%)" stop-opacity="1"/>
<stop offset="0.34375" stop-color="rgb(10.545349%, 79.890442%, 98.822021%)" stop-opacity="1"/>
<stop offset="0.359375" stop-color="rgb(10.882568%, 79.974365%, 98.822021%)" stop-opacity="1"/>
<stop offset="0.375" stop-color="rgb(11.219788%, 80.058289%, 98.822021%)" stop-opacity="1"/>
<stop offset="0.390625" stop-color="rgb(11.557007%, 80.143738%, 98.822021%)" stop-opacity="1"/>
<stop offset="0.40625" stop-color="rgb(11.894226%, 80.227661%, 98.822021%)" stop-opacity="1"/>
<stop offset="0.421875" stop-color="rgb(12.231445%, 80.311584%, 98.822021%)" stop-opacity="1"/>
<stop offset="0.4375" stop-color="rgb(12.568665%, 80.395508%, 98.822021%)" stop-opacity="1"/>
<stop offset="0.453125" stop-color="rgb(12.905884%, 80.480957%, 98.822021%)" stop-opacity="1"/>
<stop offset="0.46875" stop-color="rgb(13.243103%, 80.56488%, 98.822021%)" stop-opacity="1"/>
<stop offset="0.484375" stop-color="rgb(13.580322%, 80.648804%, 98.822021%)" stop-opacity="1"/>
<stop offset="0.5" stop-color="rgb(13.917542%, 80.732727%, 98.822021%)" stop-opacity="1"/>
<stop offset="0.515625" stop-color="rgb(14.254761%, 80.818176%, 98.822021%)" stop-opacity="1"/>
<stop offset="0.53125" stop-color="rgb(14.59198%, 80.9021%, 98.822021%)" stop-opacity="1"/>
<stop offset="0.546875" stop-color="rgb(14.929199%, 80.986023%, 98.822021%)" stop-opacity="1"/>
<stop offset="0.5625" stop-color="rgb(15.266418%, 81.069946%, 98.822021%)" stop-opacity="1"/>
<stop offset="0.578125" stop-color="rgb(15.603638%, 81.155396%, 98.822021%)" stop-opacity="1"/>
<stop offset="0.59375" stop-color="rgb(15.940857%, 81.239319%, 98.822021%)" stop-opacity="1"/>
<stop offset="0.609375" stop-color="rgb(16.278076%, 81.323242%, 98.822021%)" stop-opacity="1"/>
<stop offset="0.625" stop-color="rgb(16.615295%, 81.407166%, 98.822021%)" stop-opacity="1"/>
<stop offset="0.640625" stop-color="rgb(16.952515%, 81.492615%, 98.822021%)" stop-opacity="1"/>
<stop offset="0.65625" stop-color="rgb(17.289734%, 81.576538%, 98.822021%)" stop-opacity="1"/>
<stop offset="0.671875" stop-color="rgb(17.626953%, 81.660461%, 98.822021%)" stop-opacity="1"/>
<stop offset="0.6875" stop-color="rgb(17.964172%, 81.744385%, 98.822021%)" stop-opacity="1"/>
<stop offset="0.703125" stop-color="rgb(18.301392%, 81.829834%, 98.822021%)" stop-opacity="1"/>
<stop offset="0.71875" stop-color="rgb(18.638611%, 81.913757%, 98.822021%)" stop-opacity="1"/>
<stop offset="0.734375" stop-color="rgb(18.97583%, 81.997681%, 98.822021%)" stop-opacity="1"/>
<stop offset="0.75" stop-color="rgb(19.313049%, 82.081604%, 98.822021%)" stop-opacity="1"/>
<stop offset="0.765625" stop-color="rgb(19.650269%, 82.167053%, 98.822021%)" stop-opacity="1"/>
<stop offset="0.78125" stop-color="rgb(19.987488%, 82.250977%, 98.822021%)" stop-opacity="1"/>
<stop offset="0.796875" stop-color="rgb(20.324707%, 82.3349%, 98.822021%)" stop-opacity="1"/>
<stop offset="0.8125" stop-color="rgb(20.661926%, 82.418823%, 98.822021%)" stop-opacity="1"/>
<stop offset="0.828125" stop-color="rgb(20.999146%, 82.504272%, 98.822021%)" stop-opacity="1"/>
<stop offset="0.84375" stop-color="rgb(21.336365%, 82.588196%, 98.822021%)" stop-opacity="1"/>
<stop offset="0.859375" stop-color="rgb(21.673584%, 82.672119%, 98.822021%)" stop-opacity="1"/>
<stop offset="0.875" stop-color="rgb(22.010803%, 82.756042%, 98.822021%)" stop-opacity="1"/>
<stop offset="0.890625" stop-color="rgb(22.348022%, 82.841492%, 98.822021%)" stop-opacity="1"/>
<stop offset="0.90625" stop-color="rgb(22.685242%, 82.925415%, 98.822021%)" stop-opacity="1"/>
<stop offset="0.921875" stop-color="rgb(23.022461%, 83.009338%, 98.822021%)" stop-opacity="1"/>
<stop offset="0.9375" stop-color="rgb(23.35968%, 83.093262%, 98.822021%)" stop-opacity="1"/>
<stop offset="1" stop-color="rgb(23.529053%, 83.135986%, 98.822021%)" stop-opacity="1"/>
</linearGradient>
<clipPath id="clip-2">
<path clip-rule="nonzero" d="M 0 765.691406 L 4320 765.691406 L 4320 1158.796875 L 0 1158.796875 Z M 0 765.691406 "/>
</clipPath>
<linearGradient id="linear-pattern-2" gradientUnits="userSpaceOnUse" x1="-0.0732014" y1="0" x2="1.070001" y2="0" gradientTransform="matrix(-5.13055, -393.115, -393.115, 5.13055, 2167.64, 1158.105)">
<stop offset="0" stop-color="rgb(45.489502%, 87.841797%, 98.822021%)" stop-opacity="1"/>
<stop offset="0.0625" stop-color="rgb(45.489502%, 87.841797%, 98.822021%)" stop-opacity="1"/>
<stop offset="0.078125" stop-color="rgb(45.3125%, 87.80365%, 98.822021%)" stop-opacity="1"/>
<stop offset="0.0859375" stop-color="rgb(45.037842%, 87.745667%, 98.822021%)" stop-opacity="1"/>
<stop offset="0.09375" stop-color="rgb(44.841003%, 87.702942%, 98.822021%)" stop-opacity="1"/>
<stop offset="0.101562" stop-color="rgb(44.644165%, 87.661743%, 98.822021%)" stop-opacity="1"/>
<stop offset="0.109375" stop-color="rgb(44.448853%, 87.619019%, 98.822021%)" stop-opacity="1"/>
<stop offset="0.117188" stop-color="rgb(44.252014%, 87.576294%, 98.822021%)" stop-opacity="1"/>
<stop offset="0.125" stop-color="rgb(44.056702%, 87.535095%, 98.822021%)" stop-opacity="1"/>
<stop offset="0.132812" stop-color="rgb(43.859863%, 87.492371%, 98.822021%)" stop-opacity="1"/>
<stop offset="0.140625" stop-color="rgb(43.664551%, 87.451172%, 98.822021%)" stop-opacity="1"/>
<stop offset="0.148438" stop-color="rgb(43.467712%, 87.408447%, 98.822021%)" stop-opacity="1"/>
<stop offset="0.15625" stop-color="rgb(43.2724%, 87.367249%, 98.822021%)" stop-opacity="1"/>
<stop offset="0.164062" stop-color="rgb(43.075562%, 87.324524%, 98.822021%)" stop-opacity="1"/>
<stop offset="0.171875" stop-color="rgb(42.880249%, 87.283325%, 98.822021%)" stop-opacity="1"/>
<stop offset="0.179687" stop-color="rgb(42.683411%, 87.240601%, 98.822021%)" stop-opacity="1"/>
<stop offset="0.1875" stop-color="rgb(42.488098%, 87.199402%, 98.822021%)" stop-opacity="1"/>
<stop offset="0.195312" stop-color="rgb(42.29126%, 87.156677%, 98.822021%)" stop-opacity="1"/>
<stop offset="0.203125" stop-color="rgb(42.094421%, 87.115479%, 98.822021%)" stop-opacity="1"/>
<stop offset="0.210937" stop-color="rgb(41.899109%, 87.072754%, 98.822021%)" stop-opacity="1"/>
<stop offset="0.21875" stop-color="rgb(41.702271%, 87.030029%, 98.822021%)" stop-opacity="1"/>
<stop offset="0.226562" stop-color="rgb(41.506958%, 86.988831%, 98.822021%)" stop-opacity="1"/>
<stop offset="0.234375" stop-color="rgb(41.31012%, 86.946106%, 98.822021%)" stop-opacity="1"/>
<stop offset="0.242188" stop-color="rgb(41.114807%, 86.904907%, 98.822021%)" stop-opacity="1"/>
<stop offset="0.25" stop-color="rgb(40.917969%, 86.862183%, 98.822021%)" stop-opacity="1"/>
<stop offset="0.257812" stop-color="rgb(40.722656%, 86.820984%, 98.822021%)" stop-opacity="1"/>
<stop offset="0.265625" stop-color="rgb(40.525818%, 86.778259%, 98.822021%)" stop-opacity="1"/>
<stop offset="0.273438" stop-color="rgb(40.330505%, 86.737061%, 98.822021%)" stop-opacity="1"/>
<stop offset="0.28125" stop-color="rgb(40.133667%, 86.694336%, 98.822021%)" stop-opacity="1"/>
<stop offset="0.289062" stop-color="rgb(39.936829%, 86.653137%, 98.822021%)" stop-opacity="1"/>
<stop offset="0.296875" stop-color="rgb(39.741516%, 86.610413%, 98.822021%)" stop-opacity="1"/>
<stop offset="0.304687" stop-color="rgb(39.544678%, 86.567688%, 98.822021%)" stop-opacity="1"/>
<stop offset="0.3125" stop-color="rgb(39.349365%, 86.526489%, 98.822021%)" stop-opacity="1"/>
<stop offset="0.320312" stop-color="rgb(39.152527%, 86.483765%, 98.822021%)" stop-opacity="1"/>
<stop offset="0.328125" stop-color="rgb(38.957214%, 86.442566%, 98.822021%)" stop-opacity="1"/>
<stop offset="0.335938" stop-color="rgb(38.760376%, 86.399841%, 98.822021%)" stop-opacity="1"/>
<stop offset="0.34375" stop-color="rgb(38.565063%, 86.358643%, 98.822021%)" stop-opacity="1"/>
<stop offset="0.351562" stop-color="rgb(38.368225%, 86.315918%, 98.822021%)" stop-opacity="1"/>
<stop offset="0.359375" stop-color="rgb(38.172913%, 86.274719%, 98.822021%)" stop-opacity="1"/>
<stop offset="0.367187" stop-color="rgb(37.976074%, 86.231995%, 98.822021%)" stop-opacity="1"/>
<stop offset="0.375" stop-color="rgb(37.780762%, 86.190796%, 98.822021%)" stop-opacity="1"/>
<stop offset="0.382812" stop-color="rgb(37.583923%, 86.148071%, 98.822021%)" stop-opacity="1"/>
<stop offset="0.390625" stop-color="rgb(37.387085%, 86.105347%, 98.822021%)" stop-opacity="1"/>
<stop offset="0.398438" stop-color="rgb(37.191772%, 86.064148%, 98.822021%)" stop-opacity="1"/>
<stop offset="0.40625" stop-color="rgb(36.994934%, 86.021423%, 98.822021%)" stop-opacity="1"/>
<stop offset="0.414062" stop-color="rgb(36.799622%, 85.980225%, 98.822021%)" stop-opacity="1"/>
<stop offset="0.421875" stop-color="rgb(36.602783%, 85.9375%, 98.822021%)" stop-opacity="1"/>
<stop offset="0.429688" stop-color="rgb(36.407471%, 85.896301%, 98.822021%)" stop-opacity="1"/>
<stop offset="0.4375" stop-color="rgb(36.210632%, 85.853577%, 98.822021%)" stop-opacity="1"/>
<stop offset="0.445312" stop-color="rgb(36.01532%, 85.812378%, 98.822021%)" stop-opacity="1"/>
<stop offset="0.453125" stop-color="rgb(35.818481%, 85.769653%, 98.822021%)" stop-opacity="1"/>
<stop offset="0.460938" stop-color="rgb(35.623169%, 85.728455%, 98.822021%)" stop-opacity="1"/>
<stop offset="0.46875" stop-color="rgb(35.426331%, 85.68573%, 98.822021%)" stop-opacity="1"/>
<stop offset="0.476562" stop-color="rgb(35.229492%, 85.643005%, 98.822021%)" stop-opacity="1"/>
<stop offset="0.484375" stop-color="rgb(35.03418%, 85.601807%, 98.822021%)" stop-opacity="1"/>
<stop offset="0.492188" stop-color="rgb(34.837341%, 85.559082%, 98.822021%)" stop-opacity="1"/>
<stop offset="0.5" stop-color="rgb(34.642029%, 85.517883%, 98.822021%)" stop-opacity="1"/>
<stop offset="0.507812" stop-color="rgb(34.44519%, 85.475159%, 98.822021%)" stop-opacity="1"/>
<stop offset="0.515625" stop-color="rgb(34.249878%, 85.43396%, 98.822021%)" stop-opacity="1"/>
<stop offset="0.523437" stop-color="rgb(34.05304%, 85.391235%, 98.822021%)" stop-opacity="1"/>
<stop offset="0.53125" stop-color="rgb(33.857727%, 85.350037%, 98.822021%)" stop-opacity="1"/>
<stop offset="0.539062" stop-color="rgb(33.660889%, 85.307312%, 98.822021%)" stop-opacity="1"/>
<stop offset="0.546875" stop-color="rgb(33.465576%, 85.266113%, 98.822021%)" stop-opacity="1"/>
<stop offset="0.554688" stop-color="rgb(33.268738%, 85.223389%, 98.822021%)" stop-opacity="1"/>
<stop offset="0.5625" stop-color="rgb(33.073425%, 85.180664%, 98.822021%)" stop-opacity="1"/>
<stop offset="0.570312" stop-color="rgb(32.876587%, 85.139465%, 98.822021%)" stop-opacity="1"/>
<stop offset="0.578125" stop-color="rgb(32.679749%, 85.096741%, 98.822021%)" stop-opacity="1"/>
<stop offset="0.585938" stop-color="rgb(32.484436%, 85.055542%, 98.822021%)" stop-opacity="1"/>
<stop offset="0.59375" stop-color="rgb(32.287598%, 85.012817%, 98.822021%)" stop-opacity="1"/>
<stop offset="0.601562" stop-color="rgb(32.092285%, 84.971619%, 98.822021%)" stop-opacity="1"/>
<stop offset="0.609375" stop-color="rgb(31.895447%, 84.928894%, 98.822021%)" stop-opacity="1"/>
<stop offset="0.617187" stop-color="rgb(31.700134%, 84.887695%, 98.822021%)" stop-opacity="1"/>
<stop offset="0.625" stop-color="rgb(31.503296%, 84.844971%, 98.822021%)" stop-opacity="1"/>
<stop offset="0.632812" stop-color="rgb(31.307983%, 84.803772%, 98.822021%)" stop-opacity="1"/>
<stop offset="0.640625" stop-color="rgb(31.111145%, 84.761047%, 98.822021%)" stop-opacity="1"/>
<stop offset="0.648438" stop-color="rgb(30.915833%, 84.719849%, 98.822021%)" stop-opacity="1"/>
<stop offset="0.65625" stop-color="rgb(30.718994%, 84.677124%, 98.822021%)" stop-opacity="1"/>
<stop offset="0.664062" stop-color="rgb(30.523682%, 84.634399%, 98.822021%)" stop-opacity="1"/>
<stop offset="0.671875" stop-color="rgb(30.326843%, 84.593201%, 98.822021%)" stop-opacity="1"/>
<stop offset="0.679688" stop-color="rgb(30.130005%, 84.550476%, 98.822021%)" stop-opacity="1"/>
<stop offset="0.6875" stop-color="rgb(29.934692%, 84.509277%, 98.822021%)" stop-opacity="1"/>
<stop offset="0.695312" stop-color="rgb(29.737854%, 84.466553%, 98.822021%)" stop-opacity="1"/>
<stop offset="0.703125" stop-color="rgb(29.542542%, 84.425354%, 98.822021%)" stop-opacity="1"/>
<stop offset="0.710937" stop-color="rgb(29.345703%, 84.382629%, 98.822021%)" stop-opacity="1"/>
<stop offset="0.71875" stop-color="rgb(29.150391%, 84.341431%, 98.822021%)" stop-opacity="1"/>
<stop offset="0.726562" stop-color="rgb(28.953552%, 84.298706%, 98.822021%)" stop-opacity="1"/>
<stop offset="0.734375" stop-color="rgb(28.75824%, 84.257507%, 98.822021%)" stop-opacity="1"/>
<stop offset="0.742187" stop-color="rgb(28.561401%, 84.214783%, 98.822021%)" stop-opacity="1"/>
<stop offset="0.75" stop-color="rgb(28.366089%, 84.172058%, 98.822021%)" stop-opacity="1"/>
<stop offset="0.757812" stop-color="rgb(28.16925%, 84.130859%, 98.822021%)" stop-opacity="1"/>
<stop offset="0.765625" stop-color="rgb(27.972412%, 84.088135%, 98.822021%)" stop-opacity="1"/>
<stop offset="0.773438" stop-color="rgb(27.7771%, 84.046936%, 98.822021%)" stop-opacity="1"/>
<stop offset="0.78125" stop-color="rgb(27.580261%, 84.004211%, 98.822021%)" stop-opacity="1"/>
<stop offset="0.789062" stop-color="rgb(27.384949%, 83.963013%, 98.822021%)" stop-opacity="1"/>
<stop offset="0.796875" stop-color="rgb(27.18811%, 83.920288%, 98.822021%)" stop-opacity="1"/>
<stop offset="0.804688" stop-color="rgb(26.992798%, 83.879089%, 98.822021%)" stop-opacity="1"/>
<stop offset="0.8125" stop-color="rgb(26.795959%, 83.836365%, 98.822021%)" stop-opacity="1"/>
<stop offset="0.820312" stop-color="rgb(26.600647%, 83.795166%, 98.822021%)" stop-opacity="1"/>
<stop offset="0.828125" stop-color="rgb(26.403809%, 83.752441%, 98.822021%)" stop-opacity="1"/>
<stop offset="0.835937" stop-color="rgb(26.208496%, 83.709717%, 98.822021%)" stop-opacity="1"/>
<stop offset="0.84375" stop-color="rgb(26.011658%, 83.668518%, 98.822021%)" stop-opacity="1"/>
<stop offset="0.851562" stop-color="rgb(25.816345%, 83.625793%, 98.822021%)" stop-opacity="1"/>
<stop offset="0.859375" stop-color="rgb(25.619507%, 83.584595%, 98.822021%)" stop-opacity="1"/>
<stop offset="0.867188" stop-color="rgb(25.422668%, 83.54187%, 98.822021%)" stop-opacity="1"/>
<stop offset="0.875" stop-color="rgb(25.227356%, 83.500671%, 98.822021%)" stop-opacity="1"/>
<stop offset="0.882812" stop-color="rgb(25.030518%, 83.457947%, 98.822021%)" stop-opacity="1"/>
<stop offset="0.890625" stop-color="rgb(24.835205%, 83.416748%, 98.822021%)" stop-opacity="1"/>
<stop offset="0.898438" stop-color="rgb(24.638367%, 83.374023%, 98.822021%)" stop-opacity="1"/>
<stop offset="0.90625" stop-color="rgb(24.443054%, 83.332825%, 98.822021%)" stop-opacity="1"/>
<stop offset="0.914062" stop-color="rgb(24.246216%, 83.2901%, 98.822021%)" stop-opacity="1"/>
<stop offset="0.921875" stop-color="rgb(24.050903%, 83.247375%, 98.822021%)" stop-opacity="1"/>
<stop offset="0.929688" stop-color="rgb(23.854065%, 83.206177%, 98.822021%)" stop-opacity="1"/>
<stop offset="0.9375" stop-color="rgb(23.658752%, 83.163452%, 98.822021%)" stop-opacity="1"/>
<stop offset="1" stop-color="rgb(23.544312%, 83.139038%, 98.822021%)" stop-opacity="1"/>
</linearGradient>
</defs>
<g clip-path="url(#clip-0)">
<path fill-rule="nonzero" fill="url(#linear-pattern-0)" d="M 4325.125 427.660156 L 0.621094 479.464844 L -5.125 0.0625 L 4319.378906 -51.746094 Z M 4325.125 427.660156 "/>
</g>
<g clip-path="url(#clip-1)">
<path fill-rule="nonzero" fill="url(#linear-pattern-1)" d="M 0.753906 333.335938 L 4325.128906 390.417969 L 4319.246094 836.035156 L -5.128906 778.953125 Z M 0.753906 333.335938 "/>
</g>
<g clip-path="url(#clip-2)">
<path fill-rule="nonzero" fill="url(#linear-pattern-2)" d="M 4325.128906 1158.730469 L 0.734375 1215.167969 L -5.128906 765.757812 L 4319.265625 709.320312 Z M 4325.128906 1158.730469 "/>
</g>
<path fill-rule="nonzero" fill="rgb(100%, 90.234375%, 83.59375%)" fill-opacity="1" d="M 2.894531 1515.78125 L 4322.890625 1515.78125 L 4322.890625 2022.03125 L 2.894531 2022.03125 L 2.894531 1515.78125 "/>
<path fill-rule="nonzero" fill="rgb(100%, 90.234375%, 83.59375%)" fill-opacity="1" d="M 1.78125 1028.539062 L 1.78125 2021.011719 L 2471.238281 2021.011719 L 2471.238281 1028.539062 L 1.78125 1028.539062 "/>
<path fill-rule="nonzero" fill="rgb(100%, 93.75%, 83.59375%)" fill-opacity="1" d="M 3705.96875 1028.539062 L 3705.96875 2021.011719 L 4323.339844 2021.011719 L 4323.339844 1028.539062 L 3705.96875 1028.539062 "/>
<path fill-rule="nonzero" fill="rgb(100%, 93.75%, 83.59375%)" fill-opacity="1" d="M 3088.609375 1028.539062 L 3088.609375 2021.011719 L 3705.96875 2021.011719 L 3705.96875 1028.539062 L 3088.609375 1028.539062 "/>
<path fill-rule="nonzero" fill="rgb(100%, 93.75%, 83.59375%)" fill-opacity="1" d="M 2471.238281 1028.539062 L 2471.238281 2021.011719 L 3088.609375 2021.011719 L 3088.609375 1028.539062 L 2471.238281 1028.539062 "/>
<path fill-rule="nonzero" fill="rgb(100%, 93.75%, 83.59375%)" fill-opacity="1" d="M 1853.878906 1028.539062 L 1853.878906 2021.011719 L 2471.238281 2021.011719 L 2471.238281 1028.539062 L 1853.878906 1028.539062 "/>
<path fill-rule="nonzero" fill="rgb(100%, 93.75%, 83.59375%)" fill-opacity="1" d="M 1236.511719 1028.539062 L 1236.511719 2021.011719 L 1853.878906 2021.011719 L 1853.878906 1028.539062 L 1236.511719 1028.539062 "/>
<path fill-rule="nonzero" fill="rgb(100%, 93.75%, 83.59375%)" fill-opacity="1" d="M 619.144531 1028.539062 L 619.144531 2021.011719 L 1236.511719 2021.011719 L 1236.511719 1028.539062 L 619.144531 1028.539062 "/>
<path fill-rule="nonzero" fill="rgb(100%, 93.75%, 83.59375%)" fill-opacity="1" d="M 1.78125 1028.539062 L 1.78125 2021.011719 L 619.144531 2021.011719 L 619.144531 1028.539062 L 1.78125 1028.539062 "/>
<path fill-rule="nonzero" fill="rgb(98.826599%, 34.521484%, 34.521484%)" fill-opacity="1" d="M 680.074219 1832.199219 L 730.671875 1781.601562 C 739.535156 1772.738281 754.980469 1773.910156 765.300781 1784.230469 L 767.492188 1786.421875 C 777.8125 1796.742188 778.984375 1812.1875 770.121094 1821.050781 L 719.523438 1871.648438 C 710.660156 1880.511719 695.214844 1879.34375 684.894531 1869.019531 L 682.703125 1866.828125 C 672.382812 1856.507812 671.210938 1841.0625 680.074219 1832.199219 "/>
<path fill-rule="nonzero" fill="rgb(98.826599%, 34.521484%, 34.521484%)" fill-opacity="1" d="M 557.6875 1641.054688 L 1548.640625 1375.53125 C 1560.75 1372.285156 1573.539062 1381.023438 1577.320312 1395.121094 L 1578.121094 1398.117188 C 1581.898438 1412.214844 1575.191406 1426.175781 1563.078125 1429.421875 L 572.128906 1694.945312 C 560.019531 1698.1875 547.230469 1689.453125 543.453125 1675.355469 L 542.648438 1672.359375 C 538.871094 1658.261719 545.578125 1644.300781 557.6875 1641.054688 "/>
<path fill-rule="nonzero" fill="rgb(98.826599%, 34.521484%, 34.521484%)" fill-opacity="1" d="M 622.050781 1722.757812 C 650.671875 1772.332031 698.421875 1808.15625 754.789062 1822.351562 C 811.160156 1836.546875 871.539062 1827.949219 922.636719 1798.445312 C 1029.039062 1737.011719 1066.980469 1603.523438 1007.378906 1500.285156 C 947.773438 1397.050781 813.199219 1363.164062 706.792969 1424.597656 C 655.695312 1454.097656 618.0625 1502.085938 602.167969 1558 C 586.273438 1613.917969 593.425781 1673.179688 622.050781 1722.757812 "/>
<path fill-rule="nonzero" fill="rgb(98.826599%, 34.521484%, 34.521484%)" fill-opacity="1" d="M 1523.148438 1606.296875 L 1454.03125 1587.777344 C 1441.921875 1584.53125 1429.128906 1593.269531 1425.359375 1607.367188 L 1424.550781 1610.363281 C 1420.78125 1624.460938 1427.480469 1638.421875 1439.589844 1641.667969 L 1508.710938 1660.1875 C 1520.820312 1663.433594 1533.609375 1654.695312 1537.390625 1640.597656 L 1538.191406 1637.601562 C 1541.96875 1623.503906 1535.261719 1609.542969 1523.148438 1606.296875 "/>
<path fill-rule="nonzero" fill="rgb(30.200195%, 30.200195%, 30.200195%)" fill-opacity="1" d="M 651.847656 1705.554688 C 676.042969 1747.460938 716.40625 1777.746094 764.058594 1789.746094 C 811.710938 1801.746094 862.75 1794.476562 905.945312 1769.539062 C 995.894531 1717.605469 1027.96875 1604.761719 977.582031 1517.488281 C 927.195312 1430.222656 813.433594 1401.574219 723.484375 1453.507812 C 680.289062 1478.445312 648.472656 1519.011719 635.039062 1566.277344 C 621.605469 1613.546875 627.648438 1663.644531 651.847656 1705.554688 "/>
<path fill-rule="nonzero" fill="rgb(98.826599%, 34.521484%, 34.521484%)" fill-opacity="1" d="M 1118.621094 1589.699219 C 1147.238281 1639.277344 1194.988281 1675.101562 1251.359375 1689.296875 C 1307.730469 1703.492188 1368.109375 1694.890625 1419.210938 1665.390625 C 1525.609375 1603.957031 1563.550781 1470.46875 1503.949219 1367.230469 C 1444.351562 1263.996094 1309.769531 1230.109375 1203.359375 1291.539062 C 1152.269531 1321.042969 1114.628906 1369.027344 1098.738281 1424.945312 C 1082.851562 1480.859375 1090 1540.125 1118.621094 1589.699219 "/>
<path fill-rule="nonzero" fill="rgb(30.200195%, 30.200195%, 30.200195%)" fill-opacity="1" d="M 1148.421875 1572.496094 C 1172.609375 1614.40625 1212.980469 1644.691406 1260.628906 1656.691406 C 1308.28125 1668.691406 1359.320312 1661.421875 1402.519531 1636.480469 C 1492.46875 1584.550781 1524.539062 1471.703125 1474.148438 1384.433594 C 1423.769531 1297.164062 1310 1268.519531 1220.050781 1320.449219 C 1176.859375 1345.390625 1145.039062 1385.953125 1131.609375 1433.222656 C 1118.179688 1480.492188 1124.21875 1530.589844 1148.421875 1572.496094 "/>
<path fill-rule="nonzero" fill="rgb(100%, 33.325195%, 33.325195%)" fill-opacity="1" d="M 2454.980469 1855.546875 C 2375.691406 1850.492188 2484.820312 1588.828125 2424.75 1538.671875 C 2364.679688 1488.511719 2118.441406 1635.667969 2100.53125 1559.5625 C 2082.621094 1483.457031 2351.78125 1490.972656 2382.871094 1417.992188 C 2413.960938 1345.007812 2215.761719 1170.882812 2283.96875 1128.902344 C 2352.191406 1086.921875 2417.820312 1368.796875 2497.101562 1373.851562 C 2576.390625 1378.902344 2691.730469 1108.566406 2751.800781 1158.722656 C 2811.871094 1208.882812 2574.660156 1360.238281 2592.570312 1436.34375 C 2610.480469 1512.449219 2888.570312 1534.832031 2857.480469 1607.816406 C 2826.398438 1680.796875 2606.980469 1506.363281 2538.769531 1548.347656 C 2470.558594 1590.328125 2534.261719 1860.601562 2454.980469 1855.546875 "/>
<path fill-rule="nonzero" fill="rgb(100%, 85.546875%, 72.459412%)" fill-opacity="1" d="M 2508.679688 1447.472656 C 2498.988281 1453.066406 2487.648438 1451.558594 2483.339844 1444.101562 C 2479.039062 1436.644531 2483.398438 1426.0625 2493.089844 1420.46875 C 2502.78125 1414.875 2514.128906 1416.382812 2518.429688 1423.839844 C 2522.738281 1431.296875 2518.371094 1441.875 2508.679688 1447.472656 "/>
<path fill-rule="nonzero" fill="rgb(100%, 85.546875%, 72.459412%)" fill-opacity="1" d="M 2518.851562 1505.605469 C 2510.238281 1510.578125 2499.378906 1507.894531 2494.589844 1499.609375 C 2492.289062 1495.628906 2491.738281 1490.867188 2493.039062 1486.363281 C 2494.339844 1481.863281 2497.390625 1477.992188 2501.53125 1475.601562 C 2505.671875 1473.214844 2510.539062 1472.503906 2515.089844 1473.628906 C 2519.640625 1474.753906 2523.488281 1477.621094 2525.789062 1481.597656 C 2530.570312 1489.882812 2527.460938 1500.632812 2518.851562 1505.605469 "/>
<path fill-rule="nonzero" fill="rgb(100%, 85.546875%, 72.459412%)" fill-opacity="1" d="M 2449.101562 1501.871094 C 2438.339844 1508.085938 2425.730469 1506.410156 2420.949219 1498.125 C 2418.648438 1494.144531 2418.5 1489.144531 2420.53125 1484.222656 C 2422.570312 1479.296875 2426.609375 1474.851562 2431.78125 1471.867188 C 2436.949219 1468.882812 2442.828125 1467.601562 2448.109375 1468.300781 C 2453.390625 1469.003906 2457.640625 1471.632812 2459.941406 1475.613281 C 2464.71875 1483.898438 2459.871094 1495.652344 2449.101562 1501.871094 "/>
<path fill-rule="nonzero" fill="rgb(18.041992%, 54.492188%, 34.104919%)" fill-opacity="1" d="M 1322.171875 458.761719 C 1321.851562 457.859375 1307.070312 449.589844 1241.191406 412.320312 C 1156.828125 363.671875 988.628906 266.589844 869.449219 211.75 C 817.308594 187.769531 774.539062 171.808594 740.253906 161.050781 L 740.292969 161.75 C 696.207031 147.96875 666.109375 142.628906 648.074219 139.738281 C 631.195312 137.121094 624.914062 136.539062 622.707031 136.570312 C 607.570312 110.609375 590.03125 82.96875 569.414062 53.199219 C 557.695312 36.28125 544.980469 18.660156 531.40625 0.441406 L 518.121094 0.441406 C 533.785156 21.21875 548.367188 41.21875 561.652344 60.300781 C 561.398438 60.878906 561.09375 61.558594 561.09375 61.558594 C 561.09375 61.558594 563.011719 55.46875 546.558594 82.851562 C 530.117188 110.28125 495.335938 171.261719 462.503906 296.089844 C 429.691406 420.949219 398.84375 609.671875 383.378906 704.328125 C 367.972656 799.011719 367.8125 799.578125 369.425781 792.96875 C 371.039062 786.320312 374.273438 772.550781 399.441406 688.96875 C 424.613281 605.398438 471.730469 452.019531 501.761719 340.261719 C 531.796875 228.5 544.773438 158.378906 552.441406 116.800781 C 558.921875 81.898438 561.558594 67.269531 562.449219 61.441406 C 562.894531 62.089844 563.367188 62.738281 563.8125 63.390625 C 609.246094 129 639.296875 183.5 661.550781 232.539062 C 660.675781 234.558594 658.921875 240.078125 655.390625 254.03125 C 647.839844 281.988281 632.253906 343.78125 625.304688 462.949219 C 618.367188 582.089844 619.976562 758.558594 620.851562 847.078125 C 621.652344 935.589844 621.800781 936.199219 622.027344 929.890625 C 622.105469 923.449219 622.261719 910.328125 629.503906 830.089844 C 636.289062 749.730469 649.214844 602.019531 655.867188 495.238281 C 662.503906 388.460938 662.820312 322.578125 663.125 283.570312 L 663.671875 237.21875 C 684.914062 284.738281 698.933594 327.210938 712.75 369.820312 C 722.558594 409.289062 740.644531 471.878906 776.324219 562.820312 C 824.261719 685.039062 903.957031 858.421875 943.9375 945.371094 C 983.90625 1032.3125 984.175781 1032.859375 981.578125 1026.453125 C 979.039062 1020.109375 973.511719 1006.828125 942.664062 923.019531 C 911.789062 839.230469 855.5 684.960938 812.820312 575.148438 C 770.160156 465.339844 741.125 400.011719 723.925781 361.300781 C 716.117188 343.738281 711.328125 332.980469 707.640625 324.75 C 706.5625 321.578125 705.464844 318.398438 704.355469 315.210938 C 710.636719 320.140625 721.480469 328.320312 740.0625 342.871094 C 771.085938 367.160156 823.453125 408.21875 912.144531 470.050781 C 1000.820312 531.851562 1125.859375 614.519531 1193.699219 659.738281 C 1261.550781 704.960938 1272.25 712.75 1277.398438 716.488281 C 1282.570312 720.421875 1282.109375 720.28125 1212.578125 663.71875 C 1143.050781 607.570312 1004.410156 495.648438 905.746094 426.300781 C 807.082031 356.949219 748.386719 330.171875 721.542969 318.421875 C 710.371094 313.570312 705.449219 311.488281 702.65625 310.339844 C 684.746094 259.441406 662.277344 205.070312 624.828125 140.25 C 631.789062 144.261719 645.347656 151.160156 670.988281 165.179688 C 708.601562 186 772.074219 220.828125 879.175781 269.410156 C 986.273438 318.03125 1137.03125 380.261719 1218.871094 414.550781 C 1300.699219 448.78125 1313.628906 455.148438 1319.851562 458.25 C 1321.21875 458.679688 1322.269531 459.011719 1322.179688 458.761719 Z M 1295.429688 253.839844 C 1295.078125 252.871094 1277.550781 243.410156 1199.089844 200.710938 C 1111.738281 152.46875 948.875 62.53125 814.066406 0.441406 L 732.1875 0.441406 C 750.894531 7.851562 770.226562 15.671875 790.449219 24.058594 C 881.554688 62.121094 992.410156 112.660156 1102 162.691406 C 1103.980469 163.539062 881.507812 67.28125 790.476562 29.339844 C 765.492188 18.898438 741.839844 9.359375 719.09375 0.441406 L 651.5 0.441406 C 683.703125 15.199219 720.96875 31.578125 764.398438 49.550781 C 892.617188 102.480469 1073.449219 169.160156 1171.609375 205.988281 C 1269.75 242.789062 1285.199219 249.71875 1292.628906 253.199219 C 1294.269531 253.71875 1295.519531 254.109375 1295.429688 253.839844 Z M 1160.289062 381.160156 C 1068.558594 335.980469 975.792969 290.398438 899.734375 255.679688 C 823.679688 220.960938 762.207031 196.121094 700.703125 171.28125 C 699.039062 170.601562 699.070312 166.910156 700.746094 167.148438 C 762.199219 191.96875 823.679688 216.808594 899.722656 251.519531 C 975.828125 286.25 1161.769531 381.929688 1160.289062 381.160156 Z M 1136.699219 611.480469 C 1103.800781 587.859375 984.109375 503.328125 930.277344 465.648438 C 867.296875 421.589844 816.300781 388.261719 765.28125 354.949219 C 763.785156 354.480469 763.792969 351.609375 765.226562 351.730469 C 765.222656 351.730469 765.226562 351.761719 765.226562 351.761719 C 816.242188 385.089844 867.257812 418.421875 930.269531 462.519531 C 990.742188 504.828125 1063.851562 558.210938 1136.699219 611.480469 Z M 910.019531 855.210938 C 872.277344 763.339844 834.335938 670.871094 804.628906 594.78125 C 774.175781 516.730469 751.535156 453.789062 728.890625 390.878906 C 727.386719 388.101562 728.941406 386.738281 730.453125 388.828125 L 729.15625 389.28125 C 729.15625 389.28125 730.691406 389.519531 730.6875 389.761719 C 753.328125 452.671875 775.957031 515.558594 806.382812 593.550781 C 833.242188 662.359375 895.953125 820.308594 910.019531 855.210938 Z M 656.546875 308.308594 C 656.546875 308.628906 656.507812 309.058594 656.425781 309.609375 C 650.800781 369.609375 645.175781 429.589844 640.59375 505.511719 C 636.011719 581.410156 632.292969 675.390625 628.585938 768.308594 C 628.550781 770.621094 633.871094 580.578125 638.609375 504.640625 C 643.191406 428.640625 648.816406 368.589844 654.4375 308.570312 C 654.4375 308.570312 655.304688 307.558594 655.695312 307.101562 C 656.261719 307.328125 656.53125 307.601562 656.546875 308.308594 Z M 537.949219 141.871094 C 537.949219 142.191406 537.886719 142.441406 537.769531 142.578125 C 518.140625 204.789062 498.507812 266.980469 477.367188 346.460938 C 456.945312 423.160156 434.609375 518.140625 412.4375 612.730469 C 421.667969 571.921875 456.671875 412.910156 474.953125 344.179688 C 496.140625 264.601562 515.789062 202.320312 535.433594 140.089844 L 536.277344 139.109375 C 537.421875 139.46875 537.953125 140.929688 537.949219 141.871094 Z M 383.316406 0.441406 L 364.589844 0.441406 C 354.050781 56.589844 337.671875 142.949219 327.8125 205.621094 C 312.261719 304.25 296.972656 426.320312 281.820312 547.390625 C 285.90625 512.671875 310.085938 294.929688 324.488281 203.421875 C 336.605469 126.410156 349.058594 61.96875 361.585938 0.441406 L 332.585938 0.441406 C 321.648438 39.679688 310.75 88.148438 301.578125 147.671875 C 277.367188 304.839844 265.160156 538.960938 259.058594 656.398438 C 252.914062 773.828125 252.90625 774.570312 254.078125 766.289062 C 255.707031 758.261719 257.300781 740.671875 277.75 634.871094 C 298.128906 529.050781 336.691406 334.710938 359.230469 193.898438 C 368.761719 134.328125 376.984375 63.179688 383.316406 0.441406 "/>
<path fill-rule="nonzero" fill="rgb(18.041992%, 54.492188%, 34.104919%)" fill-opacity="1" d="M 1110.890625 798.421875 C 1110.980469 798.691406 1109.851562 798.339844 1108.359375 797.871094 C 1101.601562 794.488281 1087.53125 787.570312 998.585938 750.371094 C 909.621094 713.078125 745.738281 645.441406 629.3125 592.578125 C 512.890625 539.78125 443.890625 501.910156 403.003906 479.28125 C 375.121094 464.039062 360.386719 456.53125 352.820312 452.179688 C 393.535156 522.640625 417.957031 581.75 437.425781 637.078125 C 440.464844 638.328125 445.8125 640.589844 457.957031 645.859375 C 487.136719 658.628906 550.945312 687.75 658.203125 763.140625 C 765.457031 838.519531 916.160156 960.191406 991.75 1021.21875 C 1067.339844 1082.714844 1067.828125 1082.867188 1062.210938 1078.589844 C 1056.609375 1074.523438 1044.988281 1066.054688 971.226562 1016.890625 C 897.480469 967.738281 761.550781 877.878906 665.15625 810.691406 C 568.742188 743.480469 511.816406 698.851562 478.089844 672.441406 C 457.890625 656.628906 446.101562 647.730469 439.273438 642.371094 C 440.480469 645.828125 441.667969 649.289062 442.839844 652.730469 C 446.847656 661.679688 452.054688 673.378906 460.546875 692.480469 C 479.242188 734.550781 510.804688 805.578125 557.183594 924.941406 C 603.578125 1044.3125 664.765625 1212.015625 698.332031 1303.105469 C 731.863281 1394.203125 737.875 1408.648438 740.632812 1415.539062 C 743.457031 1422.503906 743.164062 1421.90625 699.71875 1327.394531 C 656.253906 1232.875 569.621094 1044.402344 517.507812 911.539062 C 478.71875 812.671875 459.058594 744.628906 448.394531 701.730469 C 433.378906 655.398438 418.136719 609.238281 395.050781 557.589844 L 394.453125 607.980469 C 394.121094 650.390625 393.777344 722 386.5625 838.078125 C 379.335938 954.160156 365.28125 1114.726562 357.902344 1202.082031 C 350.027344 1289.304688 349.859375 1303.566406 349.777344 1310.570312 C 349.527344 1317.425781 349.371094 1316.769531 348.5 1220.550781 C 347.546875 1124.328125 345.800781 932.488281 353.339844 802.96875 C 360.898438 673.429688 377.839844 606.261719 386.046875 575.859375 C 389.886719 560.699219 391.792969 554.699219 392.738281 552.5 C 368.550781 499.199219 335.886719 439.949219 286.492188 368.621094 C 286.007812 367.929688 285.496094 367.210938 285.011719 366.511719 C 284.042969 372.839844 281.175781 388.75 274.132812 426.691406 C 265.796875 471.890625 251.6875 548.121094 219.039062 669.601562 C 186.394531 791.089844 135.175781 957.820312 107.8125 1048.675781 C 80.453125 1139.53125 76.9375 1154.5 75.183594 1161.730469 C 73.425781 1168.914062 73.601562 1168.289062 90.347656 1065.367188 C 107.160156 962.46875 140.695312 757.308594 176.367188 621.578125 C 212.054688 485.890625 249.863281 419.601562 267.734375 389.78125 C 285.621094 360.011719 283.542969 366.640625 283.542969 366.640625 C 283.542969 366.640625 283.871094 365.898438 284.144531 365.269531 C 236.925781 297.460938 174.84375 219.03125 104.714844 134.871094 C 102.261719 172.769531 86.398438 371.109375 64.101562 510.5 C 46.976562 617.480469 21.433594 752.351562 -0.0117188 863.460938 L -0.0117188 736.660156 C 9.894531 660.238281 19.871094 587.160156 29.949219 523.230469 C 46.796875 416.128906 81.335938 244.519531 80.824219 238.75 C 80.824219 238.660156 80.785156 238.609375 80.78125 238.601562 L 80.71875 238.160156 C 80.71875 238.160156 79.058594 237.628906 79.027344 240.140625 C 61.265625 325.96875 43.5 411.851562 26.347656 520.839844 C 18.816406 568.699219 8.835938 648.25 0 722.191406 L 0 469.890625 C 0.480469 466.660156 0.953125 463.410156 1.441406 460.238281 C 27.773438 289.390625 67.148438 202.179688 85.984375 162.789062 C 96.472656 140.898438 100.582031 133.800781 102.171875 131.800781 C 69.601562 92.761719 35.28125 52.46875 0 11.488281 L 0 -0.539062 L 5.445312 -0.539062 C 119.003906 131.308594 222.203125 255.898438 292.597656 357.550781 C 315.003906 389.898438 334.070312 419.949219 350.527344 448.171875 C 352.921875 448.140625 359.753906 448.78125 378.101562 451.628906 C 397.707031 454.761719 430.425781 460.570312 478.351562 475.550781 L 478.308594 474.78125 C 515.585938 486.480469 562.078125 503.828125 618.757812 529.898438 C 748.3125 589.511719 931.15625 695.050781 1022.859375 747.929688 C 1094.46875 788.449219 1110.550781 797.441406 1110.898438 798.421875 Z M 1103.078125 263.308594 C 1102.988281 263.449219 1101.398438 262.96875 1099.371094 262.359375 C 1089.371094 259.21875 1068.570312 252.691406 936.769531 224.890625 C 804.953125 197.011719 562.15625 147.71875 389.769531 102.921875 C 230.871094 61.390625 132.300781 23.878906 70.480469 -0.539062 L 173.578125 -0.539062 C 250.222656 14.449219 330.046875 31.230469 423.527344 55.960938 C 545.902344 88.328125 845.984375 174.710938 842.65625 173.671875 C 824.222656 167.851562 805.75 162.03125 787.328125 156.25 L 787.730469 156.429688 C 658.683594 115.941406 531.042969 76.390625 423.851562 48.03125 C 346.605469 27.648438 278.660156 12.550781 214.160156 -0.539062 L 449.996094 -0.539062 C 632.214844 57.378906 854.378906 154.070312 973.121094 205.910156 C 1081.019531 252.980469 1103.46875 262.800781 1103.078125 263.308594 Z M 1081.808594 575.710938 C 1081.710938 575.890625 1080.421875 575.488281 1078.769531 574.96875 C 1070.691406 571.179688 1053.898438 563.648438 947.210938 523.640625 C 840.507812 483.601562 643.929688 411.121094 504.546875 353.578125 C 365.164062 295.929688 282.964844 252.878906 234.273438 227.558594 C 185.574219 201.988281 170.355469 195.199219 166.722656 191.550781 C 163.0625 190.398438 170.882812 192.859375 170.882812 192.859375 C 170.882812 192.859375 163.015625 190.140625 205.359375 193.878906 C 235.796875 196.398438 292.175781 202.621094 379.050781 230.050781 L 379.109375 229.238281 C 413.105469 239.910156 451.789062 253.808594 495.398438 272.261719 C 650.457031 337.511719 867.96875 457.648438 977.089844 517.898438 C 1064.078125 565.25 1082.171875 575 1081.808594 575.710938 Z M 934.910156 714.070312 C 936.519531 714.898438 734.382812 610.890625 651.652344 573.128906 C 568.988281 535.398438 502.15625 508.398438 435.351562 481.421875 C 433.527344 481.160156 433.496094 485.171875 435.308594 485.910156 C 502.164062 512.921875 568.988281 539.910156 651.667969 577.660156 C 734.347656 615.398438 835.191406 664.949219 934.90625 714.070312 Z M 909.25 964.421875 C 830.0625 906.519531 750.59375 848.5 684.859375 802.488281 C 616.363281 754.558594 560.90625 718.320312 505.449219 682.089844 C 505.449219 682.089844 505.445312 682.070312 505.449219 682.070312 C 503.886719 681.949219 503.878906 685.070312 505.511719 685.578125 C 560.96875 721.789062 616.40625 758.019531 684.871094 805.921875 C 743.382812 846.871094 873.472656 938.738281 909.25 964.429688 Z M 871.539062 476.570312 C 752.410156 422.191406 631.902344 367.25 532.863281 325.878906 C 433.820312 284.75 353.5625 255.800781 273.328125 227.109375 L 273.664062 227.160156 C 271.238281 226.148438 271.003906 232.070312 273.496094 232.890625 C 353.710938 261.570312 433.925781 290.261719 532.898438 331.609375 C 631.855469 372.859375 873.699219 477.5 871.539062 476.570312 Z M 662.953125 1229.652344 C 647.929688 1192.382812 579.46875 1019.960938 550.183594 944.941406 C 517.113281 860.160156 492.515625 791.800781 467.898438 723.410156 C 467.898438 723.160156 466.234375 722.890625 466.234375 722.890625 L 467.644531 722.398438 C 466 720.128906 464.3125 721.609375 465.949219 724.628906 C 490.5625 793.019531 515.175781 861.441406 548.28125 946.28125 C 580.601562 1029.070312 621.890625 1129.695312 662.953125 1229.652344 Z M 387.304688 634.871094 C 387.304688 634.101562 386.984375 633.808594 386.378906 633.550781 C 385.953125 634.050781 385.007812 635.148438 385.015625 635.148438 C 378.902344 700.398438 372.789062 765.679688 367.804688 848.289062 C 362.65625 930.839844 356.882812 1137.425781 356.910156 1134.925781 C 360.941406 1033.914062 364.984375 931.75 369.964844 849.238281 C 374.945312 766.710938 381.058594 701.511719 387.171875 636.28125 C 387.265625 635.679688 387.3125 635.21875 387.304688 634.871094 Z M 258.382812 453.941406 C 258.382812 452.921875 257.808594 451.328125 256.5625 450.929688 L 255.648438 452 C 234.289062 519.648438 212.933594 587.359375 189.902344 673.871094 C 170.023438 748.578125 131.96875 921.480469 121.9375 965.820312 C 146.042969 862.980469 170.328125 759.71875 192.527344 676.351562 C 215.507812 589.949219 236.847656 522.339844 258.1875 454.710938 C 258.316406 454.558594 258.382812 454.28125 258.382812 453.941406 "/>
<path fill-rule="nonzero" fill="rgb(39.988708%, 80.46875%, 66.601562%)" fill-opacity="1" d="M 4324.839844 632 C 3922.800781 557.550781 3534.050781 795.269531 3431.179688 1178.46875 C 3343.730469 1505.605469 3489.28125 1852.988281 3788.460938 2031.167969 L 4324.839844 2031.167969 L 4324.839844 632 "/>
<path fill-rule="nonzero" fill="rgb(18.431091%, 30.979919%, 30.979919%)" fill-opacity="1" d="M 4324.839844 969.960938 C 4317.289062 967.449219 4309.679688 965.121094 4302.019531 963 C 4063.648438 899.128906 3820.179688 1034.828125 3758.210938 1266.097656 C 3728.449219 1377.15625 3745.378906 1495.851562 3805.28125 1596.070312 C 3865.179688 1696.285156 3963.140625 1769.820312 4077.609375 1800.492188 C 4159.039062 1822.125 4244.75 1820.976562 4324.839844 1797.183594 L 4324.839844 969.960938 "/>
<path fill-rule="nonzero" fill="rgb(49.804688%, 100%, 83.201599%)" fill-opacity="1" d="M 4324.839844 1018.039062 C 4313.488281 1013.789062 4301.960938 1010.039062 4290.28125 1006.800781 C 4076.839844 949.609375 3858.839844 1071.117188 3803.351562 1278.195312 C 3776.710938 1377.636719 3791.871094 1483.914062 3845.5 1573.652344 C 3899.140625 1663.390625 3986.851562 1729.230469 4089.339844 1756.695312 C 4167.128906 1777.53125 4249.199219 1775.109375 4324.839844 1749.746094 L 4324.839844 1018.039062 "/>
</svg>
